<svg width="32" height="32" viewBox="0 0 32 32" fill="none" xmlns="http://www.w3.org/2000/svg">
<path d="M16 3.33333C12.6406 3.33333 9.41875 4.66785 7.04329 7.04331C4.66783 9.41877 3.33331 12.6406 3.33331 16C3.33331 19.3594 4.66783 22.5812 7.04329 24.9567C9.41875 27.3321 12.6406 28.6667 16 28.6667C19.3594 28.6667 22.5812 27.3321 24.9567 24.9567C27.3321 22.5812 28.6666 19.3594 28.6666 16C28.6666 12.6406 27.3321 9.41877 24.9567 7.04331C22.5812 4.66785 19.3594 3.33333 16 3.33333Z" fill="#1E69FF"/>
<path d="M17.7146 19.3573H20.9926L21.5073 16.0273H17.714V14.2073C17.714 12.824 18.166 11.5973 19.46 11.5973H21.5393V8.69133C21.174 8.642 20.4013 8.534 18.9413 8.534C15.8926 8.534 14.1053 10.144 14.1053 13.812V16.0273H10.9713V19.3573H14.1053V28.51C14.726 28.6033 15.3546 28.6667 16 28.6667C16.5833 28.6667 17.1526 28.6133 17.7146 28.5373V19.3573Z" fill="white"/>
</svg>
