<svg width="20" height="20" viewBox="0 0 20 20" fill="none" xmlns="http://www.w3.org/2000/svg">
<path d="M10 1.66663C5.40002 1.66663 1.66669 5.39996 1.66669 9.99996C1.66669 14.6 5.40002 18.3333 10 18.3333C14.6 18.3333 18.3334 14.6 18.3334 9.99996C18.3334 5.39996 14.6 1.66663 10 1.66663ZM11.175 15.075V16.6666H8.95002V15.0583C7.52502 14.7583 6.31669 13.8416 6.22502 12.225H7.85835C7.94169 13.1 8.54169 13.7833 10.0667 13.7833C11.7 13.7833 12.0667 12.9666 12.0667 12.4583C12.0667 11.7666 11.7 11.1166 9.84169 10.675C7.77502 10.175 6.35835 9.32496 6.35835 7.61663C6.35835 6.18329 7.51669 5.24996 8.95002 4.94163V3.33329H11.175V4.95829C12.725 5.33329 13.5 6.50829 13.55 7.78329H11.9167C11.875 6.85829 11.3834 6.22496 10.0667 6.22496C8.81669 6.22496 8.06669 6.79163 8.06669 7.59163C8.06669 8.29163 8.60835 8.74996 10.2917 9.18329C11.975 9.61663 13.775 10.3416 13.775 12.4416C13.7667 13.9666 12.625 14.8 11.175 15.075Z" fill="#014C81" fill-opacity="0.8"/>
</svg>
