<svg width="34" height="34" viewBox="0 0 34 34" fill="none" xmlns="http://www.w3.org/2000/svg">
<g clip-path="url(#clip0_139_245)">
<path d="M0 0V15.5217H15.5217V0H0ZM13.3044 13.3044H2.21737V2.21737H13.3044V13.3044Z" fill="black"/>
<path d="M11.087 4.43483H4.43481V11.087H11.087V4.43483Z" fill="black"/>
<path d="M18.4783 0V15.5217H34V0H18.4783ZM31.7826 13.3044H20.6956V2.21737H31.7826V13.3044Z" fill="black"/>
<path d="M29.5652 4.43483H22.913V11.087H29.5652V4.43483Z" fill="black"/>
<path d="M0 18.4783V34H15.5217V18.4783H0ZM13.3044 31.7826H2.21737V20.6957H13.3044V31.7826Z" fill="black"/>
<path d="M11.087 22.9131H4.43481V29.5652H11.087V22.9131Z" fill="black"/>
<path d="M18.4783 18.4783V34H22.913V31.7826H20.6956V27.3478H22.913V25.1305H20.6956V20.6957H22.913V18.4783H18.4783Z" fill="black"/>
<path d="M34 18.4783H31.7827V20.6957H34V18.4783Z" fill="black"/>
<path d="M31.7826 31.7826H29.5652V34H34V23.6521H31.7826V31.7826Z" fill="black"/>
<path d="M29.5653 18.4783H25.1305V20.6957H29.5653V18.4783Z" fill="black"/>
<path d="M29.5652 27.3479H27.3479V25.1305H29.5652V22.9131H25.1305V29.5652H29.5652V27.3479Z" fill="black"/>
<path d="M27.3479 31.7826H25.1305V34H27.3479V31.7826Z" fill="black"/>
</g>
<defs>
<clipPath id="clip0_139_245">
<rect width="34" height="34" fill="white"/>
</clipPath>
</defs>
</svg>
