<svg width="34" height="34" viewBox="0 0 34 34" fill="none" xmlns="http://www.w3.org/2000/svg">
<path d="M29.75 8.80388C28.8129 9.21896 27.8049 9.49592 26.7417 9.62696C27.8226 8.98521 28.6542 7.96167 29.0445 6.75254C28.033 7.34542 26.9124 7.78104 25.7203 8.01054C24.7683 7.00117 23.4104 6.375 21.9059 6.375C19.0159 6.375 16.6734 8.69692 16.6734 11.56C16.6734 11.9652 16.7209 12.3597 16.8102 12.7429C12.4624 12.5248 8.60624 10.4578 6.02649 7.32133C5.57316 8.08775 5.31816 8.98521 5.31816 9.93225C5.31816 11.7321 6.2397 13.3167 7.64503 14.2503C6.78724 14.224 5.97974 13.9853 5.27282 13.6028C5.27282 13.6184 5.27282 13.6418 5.27282 13.6638C5.27282 16.179 7.07695 18.2736 9.46828 18.7503C9.03124 18.87 8.56941 18.9366 8.09341 18.9366C7.75553 18.9366 7.42616 18.8983 7.10741 18.841C7.77324 20.8965 9.70486 22.3989 11.9935 22.4435C10.2028 23.8319 7.94749 24.6635 5.49524 24.6635C5.07166 24.6635 4.65728 24.6394 4.24786 24.5898C6.56482 26.0568 9.31599 26.9167 12.269 26.9167C21.8917 26.9167 27.1561 19.0145 27.1561 12.1593C27.1561 11.9347 27.149 11.7109 27.1384 11.4899C28.1654 10.7645 29.0509 9.84938 29.75 8.80388Z" fill="#03A9F4"/>
</svg>
